<svg width="46" height="40" viewBox="0 0 46 40" fill="none" xmlns="http://www.w3.org/2000/svg">
<path d="M3.03708 40L9.13421 34.8411C6.74342 33.126 4.93723 30.9971 3.86558 28.6199C1.63546 28.0209 0 25.4931 0 22.5407C0 20.9167 0.484901 19.3846 1.36289 18.2196C2.28821 17.0002 3.53705 16.3252 4.8777 16.3252C4.92791 16.3252 4.97884 16.3252 5.03049 16.3288C6.52894 14.1245 8.71171 12.2194 11.3686 10.8012C14.0564 9.36662 17.1724 8.46639 20.4139 8.18162L20.6233 6.98443C19.447 6.30945 18.7139 5.09863 18.7139 3.76372C18.7139 1.68854 20.4928 0 22.6784 0C24.8641 0 26.643 1.68854 26.643 3.76372C26.643 5.09863 25.9099 6.30945 24.7335 6.98443L24.943 8.18234C28.1773 8.46926 31.2876 9.36375 33.971 10.7926C36.6344 12.2107 38.8229 14.1181 40.3242 16.3259C41.6362 16.3525 42.8535 17.0225 43.7601 18.2196C44.641 19.3824 45.123 20.9167 45.123 22.5407C45.123 25.3583 43.6332 27.8093 41.5314 28.536C40.2159 31.5114 37.7914 34.0693 34.5018 35.9479C31.0587 37.9119 26.9701 38.9499 22.6784 38.9499C20.3921 38.9548 18.1157 38.6484 15.9121 38.0389L3.03708 40Z" fill="white"/>
<path d="M24.4561 9.53573H20.9111L21.6284 5.42627H23.7388L24.4561 9.53573Z" fill="#252525"/>
<path d="M32.2488 34.8266L14.0442 31.6245L5.43652 38.9088L32.2488 34.8266Z" fill="#252525"/>
<path d="M4.88247 28.0388C7.18256 28.0388 9.04716 25.5772 9.04716 22.5407C9.04716 19.5041 7.18256 17.0425 4.88247 17.0425C2.58237 17.0425 0.717773 19.5041 0.717773 22.5407C0.717773 25.5772 2.58237 28.0388 4.88247 28.0388Z" fill="#252525"/>
<path d="M40.2477 28.0388C42.5478 28.0388 44.4124 25.5772 44.4124 22.5407C44.4124 19.5041 42.5478 17.0425 40.2477 17.0425C37.9476 17.0425 36.083 19.5041 36.083 22.5407C36.083 25.5772 37.9476 28.0388 40.2477 28.0388Z" fill="#252525"/>
<path d="M22.6838 6.8101C24.4772 6.8101 25.931 5.44618 25.931 3.7637C25.931 2.08121 24.4772 0.717285 22.6838 0.717285C20.8904 0.717285 19.4365 2.08121 19.4365 3.7637C19.4365 5.44618 20.8904 6.8101 22.6838 6.8101Z" fill="#252525"/>
<path d="M22.6838 38.2329C33.2957 38.2329 41.8983 31.6442 41.8983 23.5166C41.8983 15.389 33.2957 8.80029 22.6838 8.80029C12.0719 8.80029 3.46924 15.389 3.46924 23.5166C3.46924 31.6442 12.0719 38.2329 22.6838 38.2329Z" fill="#252525"/>
<path d="M22.6832 5.88053C23.9291 5.88053 24.9391 4.93281 24.9391 3.76375C24.9391 2.59469 23.9291 1.64697 22.6832 1.64697C21.4373 1.64697 20.4272 2.59469 20.4272 3.76375C20.4272 4.93281 21.4373 5.88053 22.6832 5.88053Z" fill="#29B2BA"/>
<path opacity="0.4" d="M23.5439 4.31226C24.12 4.31226 24.5869 3.87389 24.5869 3.33313C24.5869 2.79237 24.12 2.354 23.5439 2.354C22.9679 2.354 22.501 2.79237 22.501 3.33313C22.501 3.87389 22.9679 4.31226 23.5439 4.31226Z" fill="white"/>
<path d="M22.6838 36.2617C31.8751 36.2617 39.3261 30.5552 39.3261 23.5159C39.3261 16.4765 31.8751 10.77 22.6838 10.77C13.4925 10.77 6.0415 16.4765 6.0415 23.5159C6.0415 30.5552 13.4925 36.2617 22.6838 36.2617Z" fill="#CFCFCE"/>
<path d="M37.1014 23.4667C37.1014 26.1093 30.6457 28.9269 22.6835 28.9269C14.7214 28.9269 8.26562 26.1093 8.26562 23.4667C8.26562 17.4549 14.7214 12.5815 22.6835 12.5815C30.6457 12.5815 37.1014 17.4549 37.1014 23.4667Z" fill="#252525"/>
<path opacity="0.2" d="M13.6427 23.4798C13.6427 16.7242 17.6905 11.2476 22.6808 11.2476C13.8579 11.2476 6.70996 16.7242 6.70996 23.4798C6.70996 30.2354 13.863 35.7085 22.683 35.7085C17.6941 35.7085 13.6427 30.2347 13.6427 23.4798Z" fill="black"/>
<path opacity="0.2" d="M16.05 26.0377C18.2657 26.0377 20.0619 24.3523 20.0619 22.2732C20.0619 20.1942 18.2657 18.5088 16.05 18.5088C13.8343 18.5088 12.0381 20.1942 12.0381 22.2732C12.0381 24.3523 13.8343 26.0377 16.05 26.0377Z" fill="#29B2BA"/>
<path opacity="0.2" d="M28.9514 26.0377C31.1671 26.0377 32.9633 24.3523 32.9633 22.2732C32.9633 20.1942 31.1671 18.5088 28.9514 18.5088C26.7356 18.5088 24.9395 20.1942 24.9395 22.2732C24.9395 24.3523 26.7356 26.0377 28.9514 26.0377Z" fill="#29B2BA"/>
<path d="M12.8125 22.2731C12.8125 22.3449 12.8161 22.4166 12.8218 22.4883H19.2776C19.2826 22.4166 19.2862 22.3449 19.2862 22.2731C19.2862 22.1863 19.2812 22.101 19.274 22.0156H12.8254C12.8168 22.101 12.8125 22.1863 12.8125 22.2731Z" fill="#29B2BA"/>
<path d="M13.5557 20.3365H18.5453C18.3888 20.1602 18.2134 20.0017 18.0223 19.8638H14.0771C13.8866 20.0018 13.7117 20.1603 13.5557 20.3365Z" fill="#29B2BA"/>
<path d="M13.5205 24.1675C13.6702 24.3428 13.8386 24.5013 14.0226 24.6402H18.079C18.2631 24.5014 18.4315 24.3429 18.5811 24.1675H13.5205Z" fill="#29B2BA"/>
<path d="M17.6265 19.6193C17.1396 19.3667 16.5991 19.2349 16.0505 19.2349C15.502 19.2349 14.9615 19.3667 14.4746 19.6193H17.6265Z" fill="#29B2BA"/>
<path d="M12.9846 21.2983C12.9291 21.452 12.8869 21.6102 12.8584 21.771H19.2424C19.2137 21.6101 19.1713 21.452 19.1155 21.2983H12.9846Z" fill="#29B2BA"/>
<path d="M14.3955 24.8853C14.9015 25.1648 15.4701 25.3114 16.0482 25.3114C16.6262 25.3114 17.1949 25.1648 17.7009 24.8853H14.3955Z" fill="#29B2BA"/>
<path d="M13.0654 23.4502C13.14 23.6156 13.2296 23.7738 13.333 23.9229H18.7709C18.8746 23.774 18.9641 23.6157 19.0385 23.4502H13.0654Z" fill="#29B2BA"/>
<path d="M13.3611 20.5811C13.2547 20.7298 13.1623 20.888 13.085 21.0538H19.0164C18.9388 20.8882 18.8464 20.73 18.7402 20.5811H13.3611Z" fill="#29B2BA"/>
<path d="M12.8501 22.7329C12.8761 22.8936 12.916 23.0518 12.9692 23.2056H19.1294C19.1829 23.0518 19.2229 22.8936 19.2492 22.7329H12.8501Z" fill="#29B2BA"/>
<path d="M26.4561 20.3365H31.4457C31.2892 20.1602 31.1138 20.0017 30.9227 19.8638H26.9775C26.787 20.0018 26.6121 20.1603 26.4561 20.3365Z" fill="#29B2BA"/>
<path d="M26.4209 24.1675C26.5706 24.3429 26.7389 24.5014 26.923 24.6402H30.9801C31.1642 24.5014 31.3326 24.3429 31.4822 24.1675H26.4209Z" fill="#29B2BA"/>
<path d="M25.7139 22.2731C25.7139 22.3449 25.7139 22.4166 25.7232 22.4883H32.179C32.1847 22.4166 32.1883 22.3449 32.1883 22.2731C32.1883 22.1863 32.1833 22.101 32.1761 22.0156H25.7289C25.7189 22.101 25.7139 22.1863 25.7139 22.2731Z" fill="#29B2BA"/>
<path d="M30.5278 19.6193C30.0409 19.3667 29.5004 19.2349 28.9519 19.2349C28.4034 19.2349 27.8629 19.3667 27.376 19.6193H30.5278Z" fill="#29B2BA"/>
<path d="M27.2983 24.8853C27.8043 25.1648 28.373 25.3114 28.951 25.3114C29.5291 25.3114 30.0977 25.1648 30.6037 24.8853H27.2983Z" fill="#29B2BA"/>
<path d="M25.885 21.2983C25.8295 21.452 25.7872 21.6102 25.7588 21.771H32.1428C32.1138 21.6102 32.0713 21.4521 32.0159 21.2983H25.885Z" fill="#29B2BA"/>
<path d="M26.2615 20.5811C26.1554 20.73 26.0629 20.8882 25.9854 21.0538H31.9175C31.8399 20.8882 31.7475 20.73 31.6413 20.5811H26.2615Z" fill="#29B2BA"/>
<path d="M25.751 22.7329C25.7777 22.8937 25.8183 23.0518 25.8722 23.2056H32.0353C32.0885 23.0518 32.1284 22.8936 32.1544 22.7329H25.751Z" fill="#29B2BA"/>
<path d="M25.9658 23.4502C26.0395 23.6155 26.1281 23.7737 26.2305 23.9229H31.6663C31.7699 23.774 31.8595 23.6157 31.9338 23.4502H25.9658Z" fill="#29B2BA"/>
</svg>
