<svg width="46" height="40" viewBox="0 0 46 40" fill="none" xmlns="http://www.w3.org/2000/svg">
<path d="M3.03708 40L9.13421 34.8411C6.74342 33.126 4.93723 30.9971 3.86558 28.6199C1.63546 28.0209 0 25.4931 0 22.5407C0 20.9167 0.484901 19.3846 1.36289 18.2196C2.28821 17.0002 3.53705 16.3252 4.8777 16.3252C4.92791 16.3252 4.97884 16.3252 5.03049 16.3288C6.52894 14.1245 8.71171 12.2194 11.3686 10.8012C14.0564 9.36662 17.1724 8.46639 20.4139 8.18162L20.6233 6.98443C19.447 6.30945 18.7139 5.09863 18.7139 3.76372C18.7139 1.68854 20.4928 0 22.6784 0C24.8641 0 26.643 1.68854 26.643 3.76372C26.643 5.09863 25.9099 6.30945 24.7335 6.98443L24.943 8.18234C28.1773 8.46926 31.2876 9.36375 33.971 10.7926C36.6344 12.2107 38.8229 14.1181 40.3242 16.3259C41.6362 16.3525 42.8535 17.0225 43.7601 18.2196C44.641 19.3824 45.123 20.9167 45.123 22.5407C45.123 25.3583 43.6332 27.8093 41.5314 28.536C40.2159 31.5114 37.7914 34.0693 34.5018 35.9479C31.0587 37.9119 26.9701 38.9499 22.6784 38.9499C20.3921 38.9548 18.1157 38.6484 15.9121 38.0389L3.03708 40Z" fill="white"/>
<path d="M24.4092 9.59628H20.8643L21.5816 5.48682H23.6919L24.4092 9.59628Z" fill="#252525"/>
<path d="M32.2019 34.8878L13.9974 31.6851L5.38965 38.9693L32.2019 34.8878Z" fill="#252525"/>
<path d="M4.83559 28.0994C7.13569 28.0994 9.00029 25.6378 9.00029 22.6012C9.00029 19.5646 7.13569 17.103 4.83559 17.103C2.5355 17.103 0.670898 19.5646 0.670898 22.6012C0.670898 25.6378 2.5355 28.0994 4.83559 28.0994Z" fill="#252525"/>
<path d="M40.2013 28.0994C42.5014 28.0994 44.366 25.6378 44.366 22.6012C44.366 19.5646 42.5014 17.103 40.2013 17.103C37.9012 17.103 36.0366 19.5646 36.0366 22.6012C36.0366 25.6378 37.9012 28.0994 40.2013 28.0994Z" fill="#252525"/>
<path d="M22.6369 6.87065C24.4303 6.87065 25.8842 5.50673 25.8842 3.82424C25.8842 2.14176 24.4303 0.777832 22.6369 0.777832C20.8435 0.777832 19.3896 2.14176 19.3896 3.82424C19.3896 5.50673 20.8435 6.87065 22.6369 6.87065Z" fill="#252525"/>
<path d="M22.6374 38.2925C33.2493 38.2925 41.8519 31.7038 41.8519 23.5762C41.8519 15.4486 33.2493 8.85986 22.6374 8.85986C12.0255 8.85986 3.42285 15.4486 3.42285 23.5762C3.42285 31.7038 12.0255 38.2925 22.6374 38.2925Z" fill="#252525"/>
<path d="M22.6368 5.94108C23.8827 5.94108 24.8927 4.99336 24.8927 3.8243C24.8927 2.65523 23.8827 1.70752 22.6368 1.70752C21.3909 1.70752 20.3809 2.65523 20.3809 3.8243C20.3809 4.99336 21.3909 5.94108 22.6368 5.94108Z" fill="#29B2BA"/>
<path opacity="0.4" d="M23.4971 4.3728C24.0731 4.3728 24.54 3.93443 24.54 3.39368C24.54 2.85292 24.0731 2.41455 23.4971 2.41455C22.9211 2.41455 22.4541 2.85292 22.4541 3.39368C22.4541 3.93443 22.9211 4.3728 23.4971 4.3728Z" fill="white"/>
<path d="M22.6374 36.3223C31.8287 36.3223 39.2797 30.6158 39.2797 23.5764C39.2797 16.5371 31.8287 10.8306 22.6374 10.8306C13.4461 10.8306 5.99512 16.5371 5.99512 23.5764C5.99512 30.6158 13.4461 36.3223 22.6374 36.3223Z" fill="#CFCFCE"/>
<path opacity="0.2" d="M13.5971 23.5392C13.5971 16.7843 17.6442 11.3076 22.6352 11.3076C13.8123 11.3076 6.66504 16.7843 6.66504 23.5392C6.66504 30.2941 13.8166 35.7714 22.6366 35.7714C17.6442 35.7714 13.5971 30.2948 13.5971 23.5392Z" fill="black"/>
<path d="M37.0555 23.5265C37.0555 26.1698 30.5998 28.9874 22.6376 28.9874C14.6755 28.9874 8.21973 26.1698 8.21973 23.5265C8.21973 17.5155 14.6755 12.6421 22.6376 12.6421C30.5998 12.6421 37.0555 17.5155 37.0555 23.5265Z" fill="#252525"/>
<path d="M15.4055 19.9546H13.6553C13.6645 20.1287 13.7379 20.2932 13.8611 20.4165L13.8719 20.4266H15.8804L15.4055 19.9546Z" fill="#D85591"/>
<path d="M15.4439 22.1069L14.9712 22.5789H18.0298L17.5571 22.1069H15.4439Z" fill="#D85591"/>
<path d="M14.7261 22.8237L14.2534 23.2957H16.2604L16.5 23.0561L16.7403 23.2957H18.7466L18.2739 22.8237H14.7261Z" fill="#D85591"/>
<path d="M16.0154 23.5415H14.007L13.8585 23.69C13.7702 23.7807 13.7078 23.8934 13.6777 24.0164H15.5427L16.0154 23.5415Z" fill="#D85591"/>
<path d="M17.4577 24.0164H19.3227C19.2918 23.8938 19.2281 23.782 19.1384 23.6929L18.9899 23.5444H16.9814L17.4577 24.0164Z" fill="#D85591"/>
<path d="M17.595 19.9546L17.1201 20.4294H19.1286L19.1386 20.4194C19.2619 20.2961 19.3352 20.1316 19.3445 19.9575L17.595 19.9546Z" fill="#D85591"/>
<path d="M17.7021 24.2583L18.1368 24.6923C18.2026 24.7585 18.2809 24.811 18.367 24.8468C18.4532 24.8827 18.5456 24.9011 18.639 24.9011C18.7323 24.9011 18.8247 24.8827 18.9109 24.8468C18.997 24.811 19.0753 24.7585 19.1411 24.6923C19.2583 24.5763 19.3307 24.4226 19.3455 24.2583H17.7021Z" fill="#D85591"/>
<path d="M13.6558 24.2583C13.6712 24.4224 13.7435 24.5759 13.8602 24.6923C13.926 24.7584 14.0043 24.8108 14.0905 24.8466C14.1766 24.8824 14.269 24.9008 14.3623 24.9008C14.4556 24.9008 14.548 24.8824 14.6342 24.8466C14.7203 24.8108 14.7986 24.7584 14.8644 24.6923L15.2984 24.2583H13.6558Z" fill="#D85591"/>
<path d="M15.16 19.7125L14.8638 19.4163C14.7771 19.3296 14.6694 19.2668 14.5512 19.2342C14.4331 19.2015 14.3084 19.2 14.1895 19.2298C14.0706 19.2597 13.9614 19.3198 13.8727 19.4044C13.7839 19.489 13.7186 19.5952 13.6831 19.7125H15.16Z" fill="#D85591"/>
<path d="M19.3182 19.7124C19.2825 19.5952 19.2171 19.4892 19.1284 19.4047C19.0396 19.3202 18.9305 19.2602 18.8116 19.2303C18.6928 19.2005 18.5682 19.202 18.4501 19.2345C18.332 19.2671 18.2243 19.3296 18.1375 19.4161L17.8384 19.7124H19.3182Z" fill="#D85591"/>
<path d="M16.8786 20.6724L16.5005 21.0504L16.1225 20.6724H14.1162L14.5889 21.1444H18.4129L18.8849 20.6724H16.8786Z" fill="#D85591"/>
<path d="M14.833 21.3892L15.3057 21.8611H17.6951L18.1671 21.3892H14.833Z" fill="#D85591"/>
<path d="M26.6058 22.853L26.1338 23.3257H28.1401L28.4091 23.0567L28.6781 23.3257H30.6844L30.2117 22.853H26.6058Z" fill="#D85591"/>
<path d="M27.8943 23.5698H25.8858L25.7667 23.6896C25.67 23.7862 25.6034 23.9088 25.5752 24.0425H27.4201L27.8943 23.5698Z" fill="#D85591"/>
<path d="M27.3429 19.9839H25.5654C25.5815 20.1467 25.6538 20.2989 25.7699 20.4143L25.8093 20.4537H27.8178L27.3429 19.9839Z" fill="#D85591"/>
<path d="M29.4749 19.9839L29.0029 20.4566H31.0114L31.0508 20.4171C31.1667 20.3016 31.2389 20.1495 31.2553 19.9868L29.4749 19.9839Z" fill="#D85591"/>
<path d="M29.3958 24.0425H31.2407C31.2122 23.9089 31.1457 23.7863 31.0492 23.6896L30.9294 23.5698H28.9209L29.3958 24.0425Z" fill="#D85591"/>
<path d="M27.3226 22.1353L26.8506 22.608H29.9666L29.4939 22.1353H27.3226Z" fill="#D85591"/>
<path d="M28.758 20.7007L28.4094 21.05L28.06 20.7007H26.0537L26.5264 21.1734H30.2923L30.7643 20.7007H28.758Z" fill="#D85591"/>
<path d="M29.6396 24.2876L30.0449 24.6929C30.1108 24.759 30.189 24.8114 30.2752 24.8472C30.3614 24.883 30.4537 24.9014 30.547 24.9014C30.6403 24.9014 30.7327 24.883 30.8189 24.8472C30.9051 24.8114 30.9833 24.759 31.0492 24.6929C31.1588 24.5836 31.2292 24.4411 31.2493 24.2876H29.6396Z" fill="#D85591"/>
<path d="M25.5688 24.2876C25.5892 24.4412 25.6598 24.5837 25.7697 24.6929C25.8355 24.7591 25.9137 24.8116 25.9999 24.8474C26.0861 24.8833 26.1785 24.9017 26.2718 24.9017C26.3651 24.9017 26.4575 24.8833 26.5437 24.8474C26.6299 24.8116 26.7081 24.7591 26.7739 24.6929L27.1792 24.2876H25.5688Z" fill="#D85591"/>
<path d="M26.7705 21.4185L27.2432 21.8912H29.5745L30.0465 21.4185H26.7705Z" fill="#D85591"/>
<path d="M27.0978 19.7388L26.7721 19.4131C26.6836 19.3248 26.5734 19.2615 26.4525 19.2296C26.3317 19.1976 26.2045 19.1982 26.084 19.2313C25.9634 19.2644 25.8538 19.3287 25.7661 19.4179C25.6785 19.507 25.616 19.6177 25.585 19.7388H27.0978Z" fill="#D85591"/>
<path d="M31.2332 19.739C31.2024 19.6176 31.1399 19.5066 31.0521 19.4172C30.9644 19.3279 30.8545 19.2634 30.7337 19.2303C30.6129 19.1972 30.4855 19.1967 30.3645 19.2288C30.2435 19.261 30.1331 19.3246 30.0447 19.4133L29.7197 19.739H31.2332Z" fill="#D85591"/>
<g opacity="0.2">
<path d="M18.6574 25.2493C18.5171 25.2494 18.3782 25.2218 18.2486 25.1681C18.119 25.1144 18.0012 25.0358 17.9021 24.9366L16.5191 23.5536L15.1361 24.9366C14.9359 25.1368 14.6643 25.2493 14.3812 25.2493C14.098 25.2493 13.8264 25.1368 13.6262 24.9366C13.426 24.7363 13.3135 24.4648 13.3135 24.1816C13.3135 23.8984 13.426 23.6268 13.6262 23.4266L15.0092 22.0436L13.6262 20.66C13.4401 20.4571 13.3396 20.1901 13.3457 19.9148C13.3518 19.6395 13.464 19.3773 13.6589 19.1828C13.8538 18.9884 14.1164 18.8767 14.3917 18.8713C14.6669 18.8659 14.9337 18.967 15.1361 19.1536L16.5191 20.5366L17.9021 19.1536C18.1051 18.9699 18.3709 18.8711 18.6446 18.8777C18.9183 18.8844 19.1791 18.9959 19.3729 19.1892C19.5668 19.3825 19.6791 19.6429 19.6865 19.9166C19.6939 20.1903 19.5959 20.4564 19.4127 20.66L18.0298 22.0436L19.4163 23.4266C19.5655 23.576 19.667 23.7663 19.7081 23.9734C19.7492 24.1805 19.728 24.3951 19.6471 24.5901C19.5663 24.7852 19.4295 24.9519 19.254 25.0692C19.0785 25.1865 18.8721 25.2492 18.661 25.2493H18.6574Z" fill="#C41565"/>
</g>
<g opacity="0.2">
<path d="M30.4929 25.2494C30.3526 25.2495 30.2137 25.2219 30.0841 25.1682C29.9545 25.1145 29.8367 25.0359 29.7375 24.9366L28.3546 23.5537L26.9716 24.9366C26.7714 25.1369 26.4998 25.2494 26.2166 25.2494C25.9335 25.2494 25.6619 25.1369 25.4617 24.9366C25.2614 24.7364 25.1489 24.4648 25.1489 24.1817C25.1489 23.8985 25.2614 23.6269 25.4617 23.4267L26.8446 22.0437L25.4617 20.6601C25.3558 20.5625 25.2708 20.4446 25.2117 20.3133C25.1526 20.1821 25.1207 20.0402 25.1179 19.8963C25.115 19.7524 25.1413 19.6094 25.1952 19.4759C25.249 19.3425 25.3293 19.2212 25.4312 19.1196C25.5331 19.0179 25.6545 18.9379 25.7881 18.8844C25.9217 18.8309 26.0648 18.8049 26.2087 18.8081C26.3526 18.8113 26.4943 18.8436 26.6254 18.903C26.7565 18.9623 26.8743 19.0476 26.9716 19.1537L28.3546 20.5367L29.7375 19.1537C29.9405 18.97 30.2063 18.8712 30.4801 18.8778C30.7538 18.8845 31.0145 18.996 31.2084 19.1893C31.4023 19.3826 31.5145 19.643 31.5219 19.9167C31.5293 20.1904 31.4313 20.4565 31.2482 20.6601L29.8652 22.0437L31.2518 23.4267C31.4009 23.5761 31.5025 23.7664 31.5435 23.9735C31.5846 24.1806 31.5634 24.3952 31.4826 24.5902C31.4018 24.7853 31.265 24.952 31.0894 25.0693C30.9139 25.1866 30.7076 25.2493 30.4964 25.2494H30.4929Z" fill="#C41565"/>
</g>
</svg>
