<svg width="35" height="41" viewBox="0 0 35 41" fill="none" xmlns="http://www.w3.org/2000/svg">
<path opacity="0.6" d="M17.2843 0C22.5791 0 26.8867 4.36188 26.8867 9.72332C26.8867 15.0848 22.5791 19.4466 17.2843 19.4466C11.9895 19.4466 7.68192 15.0848 7.68192 9.72332C7.68192 4.36188 11.9895 0 17.2843 0ZM4.8012 23.498H29.7674C32.4138 23.498 34.5686 25.6799 34.5686 28.3597V30.3043C34.5686 31.1717 34.4718 32.023 34.2798 32.8339C34.155 33.3609 33.8836 33.8429 33.5034 34.2241C29.1419 38.5937 23.3838 41 17.2843 41C11.1849 41 5.42476 38.5956 1.06527 34.2279C0.685012 33.8467 0.417405 33.3647 0.292574 32.8377C0.0986053 32.0249 0 31.1717 0 30.3043V28.3597C0 25.6799 2.15478 23.498 4.8012 23.498Z" fill="#008484"/>
</svg>
