<svg xmlns="http://www.w3.org/2000/svg" width="17" height="20" viewBox="0 0 17 20" fill="none">
  <path d="M16.16 11.51L15.16 10.51C14.83 10.18 14.38 10 13.92 10H9.08V7.5H13.33C14.29 7.5 15.08 6.71 15.08 5.75V3.75C15.08 2.79 14.29 2 13.33 2H9.08V0.75C9.08 0.34 8.74 0 8.33 0C7.92 0 7.58 0.34 7.58 0.75V2H2.75C2.29 2 1.84 2.19 1.51 2.51L0.51 3.51C-0.17 4.19 -0.17 5.3 0.51 5.98L1.51 6.98C1.84 7.31 2.29 7.49 2.75 7.49H7.59V9.99H3.34C2.38 9.99 1.59 10.78 1.59 11.74V13.74C1.59 14.7 2.38 15.49 3.34 15.49H7.59V18.74C7.59 19.15 7.93 19.49 8.34 19.49C8.75 19.49 9.09 19.15 9.09 18.74V15.49H13.93C14.39 15.49 14.84 15.3 15.17 14.98L16.17 13.98C16.85 13.3 16.85 12.19 16.17 11.51H16.16ZM2.58 5.93L1.58 4.93C1.48 4.83 1.48 4.67 1.58 4.58L2.58 3.58C2.58 3.58 2.69 3.51 2.76 3.51H13.35C13.49 3.51 13.6 3.62 13.6 3.76V5.76C13.6 5.9 13.49 6.01 13.35 6.01H2.75C2.68 6.01 2.62 5.98 2.57 5.94L2.58 5.93ZM15.11 12.93L14.11 13.93C14.11 13.93 14 14 13.93 14H3.34C3.2 14 3.09 13.89 3.09 13.75V11.75C3.09 11.61 3.2 11.5 3.34 11.5H13.93C14 11.5 14.06 11.53 14.11 11.57L15.11 12.57C15.21 12.67 15.21 12.83 15.11 12.92V12.93Z" fill="white"/>
</svg>