<svg width="20" height="20" viewBox="0 0 20 20" fill="none" xmlns="http://www.w3.org/2000/svg">
<g clip-path="url(#clip0_419_8485)">
<path d="M10.267 11.4347V11.3239C10.2699 10.8097 10.3182 10.4006 10.4119 10.0966C10.5085 9.79261 10.6449 9.5483 10.821 9.36364C10.9972 9.17614 11.2116 9.00426 11.4645 8.84801C11.6378 8.74006 11.7926 8.62216 11.929 8.49432C12.0682 8.36364 12.1776 8.21875 12.2571 8.05966C12.3366 7.89773 12.3764 7.71733 12.3764 7.51847C12.3764 7.29403 12.3239 7.09943 12.2188 6.93466C12.1136 6.76989 11.9716 6.64205 11.7926 6.55114C11.6165 6.46023 11.419 6.41477 11.2003 6.41477C10.9986 6.41477 10.8068 6.45881 10.625 6.54688C10.446 6.6321 10.2969 6.76278 10.1776 6.93892C10.0611 7.11222 9.99574 7.33239 9.98153 7.59943H8.46449C8.47869 7.05966 8.60938 6.60795 8.85653 6.24432C9.10653 5.88068 9.43608 5.60795 9.84517 5.42614C10.2571 5.24432 10.7116 5.15341 11.2088 5.15341C11.7514 5.15341 12.2287 5.24858 12.6406 5.43892C13.0554 5.62926 13.3778 5.90057 13.608 6.25284C13.8409 6.60227 13.9574 7.01705 13.9574 7.49716C13.9574 7.82102 13.9048 8.1108 13.7997 8.36648C13.6974 8.62216 13.5511 8.84943 13.3608 9.0483C13.1705 9.24716 12.9446 9.42472 12.6832 9.58097C12.4531 9.72301 12.2642 9.87074 12.1165 10.0241C11.9716 10.1776 11.8636 10.358 11.7926 10.5653C11.7244 10.7699 11.6889 11.0227 11.6861 11.3239V11.4347H10.267ZM11.0085 14.0938C10.7528 14.0938 10.5327 14.0028 10.348 13.821C10.1634 13.6392 10.071 13.4176 10.071 13.1562C10.071 12.9006 10.1634 12.6818 10.348 12.5C10.5327 12.3182 10.7528 12.2273 11.0085 12.2273C11.2614 12.2273 11.4801 12.3182 11.6648 12.5C11.8523 12.6818 11.946 12.9006 11.946 13.1562C11.946 13.3295 11.902 13.4872 11.8139 13.6293C11.7287 13.7713 11.6151 13.8849 11.473 13.9702C11.3338 14.0526 11.179 14.0938 11.0085 14.0938Z" fill="white"/>
<path d="M16.75 0H4.75C3.23 0 2 1.23 2 2.75V4H0.75C0.34 4 0 4.34 0 4.75C0 5.16 0.34 5.5 0.75 5.5H2V9H0.75C0.34 9 0 9.34 0 9.75C0 10.16 0.34 10.5 0.75 10.5H2V14H0.75C0.34 14 0 14.34 0 14.75C0 15.16 0.34 15.5 0.75 15.5H2V16.75C2 18.27 3.23 19.5 4.75 19.5H16.75C18.27 19.5 19.5 18.27 19.5 16.75V2.75C19.5 1.23 18.27 0 16.75 0ZM18 16.75C18 17.44 17.44 18 16.75 18H4.75C4.06 18 3.5 17.44 3.5 16.75V15.5H3.75C4.16 15.5 4.5 15.16 4.5 14.75C4.5 14.34 4.16 14 3.75 14H3.5V10.5H3.75C4.16 10.5 4.5 10.16 4.5 9.75C4.5 9.34 4.16 9 3.75 9H3.5V5.5H3.75C4.16 5.5 4.5 5.16 4.5 4.75C4.5 4.34 4.16 4 3.75 4H3.5V2.75C3.5 2.06 4.06 1.5 4.75 1.5H16.75C17.44 1.5 18 2.06 18 2.75V16.75Z" fill="white"/>
</g>
<defs>
<clipPath id="clip0_419_8485">
<rect width="20" height="20" fill="white"/>
</clipPath>
</defs>
</svg>
