<svg width="20" height="23" viewBox="0 0 20 23" fill="none" xmlns="http://www.w3.org/2000/svg">
<path d="M10.9197 0.773504C10.831 0.684733 10.7295 0.621326 10.6154 0.5706C10.5012 0.519874 10.3744 0.49451 10.2476 0.49451C10.1208 0.49451 9.99399 0.519874 9.87985 0.5706C9.76572 0.621326 9.66427 0.684733 9.5755 0.773504L5.77106 4.57795C5.40329 4.94571 5.40329 5.55442 5.77106 5.92218C6.13882 6.28994 6.74753 6.28994 7.11529 5.92218L9.29651 3.74097L9.29651 9.05451C9.29651 9.57445 9.72768 10.0056 10.2476 10.0056C10.7676 10.0056 11.1987 9.57445 11.1987 9.05451L11.1987 3.74097L13.3799 5.92218C13.7477 6.28994 14.3564 6.28994 14.7242 5.92218C15.0919 5.55442 15.0919 4.94571 14.7242 4.57794L10.9197 0.773504Z" fill="#D82F59"/>
<path d="M15.75 8.99976H3.75C1.68 8.99976 0 10.6798 0 12.7498V18.7498C0 20.8198 1.68 22.4998 3.75 22.4998H15.75C17.82 22.4998 19.5 20.8198 19.5 18.7498V12.7498C19.5 10.6798 17.82 8.99976 15.75 8.99976ZM15.75 10.4998C16.08 10.4998 16.39 10.5698 16.67 10.6998L10.58 16.0298C10.11 16.4398 9.4 16.4398 8.93 16.0298L2.83 10.6998C3.11 10.5698 3.42 10.4998 3.75 10.4998H15.75ZM18 18.7498C18 19.9898 16.99 20.9998 15.75 20.9998H3.75C2.51 20.9998 1.5 19.9898 1.5 18.7498V12.7498C1.5 12.3898 1.59 12.0498 1.75 11.7398L7.94 17.1598C8.46 17.6098 9.1 17.8398 9.75 17.8398C10.4 17.8398 11.04 17.6098 11.56 17.1598L17.75 11.7398C17.9 12.0398 18 12.3798 18 12.7498V18.7498Z" fill="black"/>
<path d="M15.75 10.4998C16.08 10.4998 16.39 10.5698 16.67 10.6998L10.58 16.0298C10.11 16.4398 9.4 16.4398 8.93 16.0298L2.83 10.6998C3.11 10.5698 3.42 10.4998 3.75 10.4998H15.75Z" fill="white"/>
<path d="M18 18.7498C18 19.9898 16.99 20.9998 15.75 20.9998H3.75C2.51 20.9998 1.5 19.9898 1.5 18.7498V12.7498C1.5 12.3898 1.59 12.0498 1.75 11.7398L7.94 17.1598C8.46 17.6098 9.1 17.8398 9.75 17.8398C10.4 17.8398 11.04 17.6098 11.56 17.1598L17.75 11.7398C17.9 12.0398 18 12.3798 18 12.7498V18.7498Z" fill="white"/>
</svg>
